# https://github.com/mikedh/trimesh
v 0.00000000 0.00000000 0.00000000
v 1.00000000 0.00000000 0.00000000
v 1.00000000 1.00000000 0.00000000
v 0.00000000 0.00000000 0.00000000
v 1.00000000 0.00000000 0.00000000
v 1.00000000 1.00000000 0.00000000
v 0.00000000 0.00000000 0.00000000
v 1.00000000 0.00000000 0.00000000
v 1.00000000 1.00000000 0.00000000
v 0.00000000 0.00000000 0.00000000
v 1.00000000 0.00000000 0.00000000
v 1.00000000 1.00000000 0.00000000
v 0.00000000 0.00000000 0.00000000
v 1.00000000 0.00000000 0.00000000
v 1.00000000 1.00000000 0.00000000
v 0.00000000 0.00000000 0.00000000
v 1.00000000 0.00000000 0.00000000
v 1.00000000 1.00000000 0.00000000
f 1 2 3
f 4 5 6
f 7 8 9
f 10 11 12
f 13 14 15
f 16 17 18

